<?xml version="1.0" encoding="UTF-8" standalone="no"?>
<!DOCTYPE svg PUBLIC "-//W3C//DTD SVG 1.1//EN" "http://www.w3.org/Graphics/SVG/1.1/DTD/svg11.dtd">
<svg width="100%" height="100%" viewBox="0 0 1438 201" version="1.1" xmlns="http://www.w3.org/2000/svg" xmlns:xlink="http://www.w3.org/1999/xlink" xml:space="preserve" xmlns:serif="http://www.serif.com/" style="fill-rule:evenodd;clip-rule:evenodd;stroke-linejoin:round;stroke-miterlimit:2;">
    <g transform="matrix(1,0,0,1,-946.151,-765.94)">
        <g transform="matrix(1,0,0,1,43.6751,-49.1463)">
            <g transform="matrix(203.463,0,0,203.463,1131.41,976.505)">
                <path d="M0.274,-0.688L0.274,-0.458C0.292,-0.475 0.313,-0.489 0.335,-0.5C0.358,-0.51 0.383,-0.516 0.41,-0.516C0.443,-0.516 0.472,-0.508 0.496,-0.494C0.521,-0.479 0.541,-0.46 0.557,-0.436C0.573,-0.411 0.586,-0.385 0.594,-0.355C0.601,-0.326 0.605,-0.297 0.605,-0.268C0.605,-0.219 0.596,-0.173 0.577,-0.13C0.558,-0.087 0.531,-0.052 0.494,-0.026C0.458,0.001 0.413,0.014 0.36,0.014C0.337,0.014 0.315,0.011 0.295,0.003C0.276,-0.004 0.258,-0.014 0.242,-0.027C0.218,-0.018 0.192,-0.009 0.164,-0C0.136,0.009 0.112,0.013 0.091,0.013C0.079,0.013 0.071,0.01 0.064,0.002C0.058,-0.005 0.055,-0.014 0.055,-0.025L0.055,-0.537C0.055,-0.551 0.052,-0.562 0.048,-0.57C0.043,-0.577 0.038,-0.583 0.032,-0.587C0.026,-0.592 0.02,-0.596 0.016,-0.602C0.011,-0.607 0.009,-0.615 0.009,-0.625C0.009,-0.638 0.013,-0.649 0.021,-0.656C0.029,-0.663 0.039,-0.668 0.05,-0.672L0.155,-0.715C0.167,-0.72 0.18,-0.725 0.193,-0.729C0.206,-0.732 0.219,-0.734 0.233,-0.734C0.246,-0.734 0.256,-0.73 0.263,-0.72C0.27,-0.711 0.274,-0.7 0.274,-0.688ZM0.307,-0.389C0.295,-0.389 0.284,-0.385 0.274,-0.376L0.274,-0.116C0.279,-0.11 0.285,-0.106 0.292,-0.102C0.298,-0.099 0.305,-0.097 0.313,-0.097C0.328,-0.097 0.34,-0.103 0.349,-0.114C0.357,-0.124 0.364,-0.138 0.368,-0.154C0.373,-0.171 0.376,-0.187 0.377,-0.203C0.378,-0.219 0.379,-0.233 0.379,-0.243C0.379,-0.255 0.378,-0.268 0.376,-0.285C0.375,-0.301 0.372,-0.317 0.366,-0.333C0.361,-0.349 0.354,-0.362 0.345,-0.373C0.335,-0.383 0.323,-0.389 0.307,-0.389Z" style="fill:rgb(53,125,58);fill-rule:nonzero;"/>
            </g>
            <g transform="matrix(203.463,0,0,203.463,1260.06,976.505)">
                <path d="M0.02,-0.112C0.02,-0.142 0.027,-0.167 0.041,-0.187C0.055,-0.207 0.073,-0.223 0.095,-0.236C0.118,-0.248 0.143,-0.257 0.169,-0.262C0.195,-0.267 0.221,-0.27 0.245,-0.27C0.252,-0.27 0.26,-0.269 0.267,-0.269C0.275,-0.269 0.282,-0.268 0.289,-0.267L0.289,-0.394C0.289,-0.402 0.287,-0.412 0.284,-0.422C0.281,-0.433 0.274,-0.438 0.263,-0.438C0.253,-0.438 0.247,-0.434 0.244,-0.426C0.242,-0.418 0.241,-0.41 0.241,-0.402C0.241,-0.399 0.241,-0.385 0.241,-0.382C0.241,-0.348 0.23,-0.325 0.207,-0.311C0.183,-0.298 0.157,-0.291 0.127,-0.291C0.103,-0.291 0.081,-0.297 0.063,-0.308C0.045,-0.319 0.036,-0.338 0.036,-0.366C0.036,-0.377 0.038,-0.388 0.042,-0.398C0.047,-0.409 0.052,-0.418 0.059,-0.426C0.079,-0.45 0.104,-0.469 0.134,-0.481C0.164,-0.494 0.196,-0.503 0.229,-0.508C0.263,-0.512 0.294,-0.515 0.323,-0.515C0.356,-0.515 0.387,-0.51 0.415,-0.5C0.442,-0.491 0.464,-0.475 0.481,-0.453C0.498,-0.431 0.506,-0.402 0.506,-0.365L0.506,-0.14C0.506,-0.134 0.507,-0.129 0.51,-0.125C0.512,-0.121 0.517,-0.119 0.523,-0.119C0.528,-0.119 0.532,-0.12 0.535,-0.123C0.539,-0.126 0.543,-0.128 0.548,-0.128C0.557,-0.128 0.564,-0.125 0.569,-0.118C0.574,-0.112 0.576,-0.104 0.576,-0.095C0.576,-0.072 0.569,-0.053 0.555,-0.036C0.542,-0.02 0.524,-0.007 0.504,0.001C0.483,0.01 0.463,0.014 0.442,0.014C0.417,0.014 0.393,0.009 0.368,-0.002C0.343,-0.013 0.326,-0.029 0.316,-0.052C0.3,-0.029 0.277,-0.012 0.248,-0.002C0.219,0.009 0.191,0.014 0.164,0.014C0.138,0.014 0.115,0.009 0.093,-0C0.071,-0.01 0.053,-0.024 0.04,-0.043C0.026,-0.062 0.02,-0.085 0.02,-0.112ZM0.24,-0.155C0.24,-0.142 0.243,-0.13 0.249,-0.118C0.255,-0.107 0.266,-0.101 0.281,-0.101C0.284,-0.101 0.286,-0.101 0.289,-0.102L0.289,-0.203C0.284,-0.205 0.278,-0.207 0.272,-0.207C0.26,-0.207 0.251,-0.2 0.247,-0.188C0.242,-0.176 0.24,-0.165 0.24,-0.155Z" style="fill:rgb(53,125,58);fill-rule:nonzero;"/>
            </g>
            <g transform="matrix(203.463,0,0,203.463,1375.41,976.505)">
                <path d="M0.249,-0.432C0.238,-0.432 0.228,-0.43 0.219,-0.425C0.21,-0.42 0.206,-0.411 0.206,-0.398C0.206,-0.388 0.208,-0.38 0.213,-0.375C0.218,-0.369 0.225,-0.364 0.234,-0.36C0.244,-0.356 0.254,-0.353 0.265,-0.351C0.276,-0.349 0.286,-0.347 0.296,-0.345C0.326,-0.338 0.354,-0.327 0.38,-0.312C0.406,-0.296 0.427,-0.276 0.444,-0.252C0.46,-0.228 0.468,-0.199 0.468,-0.166C0.468,-0.121 0.458,-0.086 0.438,-0.06C0.417,-0.033 0.391,-0.014 0.357,-0.003C0.324,0.008 0.287,0.014 0.248,0.014C0.237,0.014 0.224,0.013 0.206,0.01C0.188,0.008 0.175,0.004 0.167,-0L0.166,-0C0.163,-0.002 0.157,-0.004 0.15,-0.006C0.142,-0.008 0.137,-0.009 0.133,-0.009C0.123,-0.009 0.115,-0.005 0.107,0.003C0.1,0.011 0.091,0.015 0.081,0.015C0.067,0.015 0.056,0.011 0.048,0.001C0.04,-0.008 0.034,-0.018 0.03,-0.031C0.026,-0.044 0.022,-0.055 0.019,-0.066C0.017,-0.075 0.014,-0.084 0.011,-0.093C0.008,-0.102 0.007,-0.111 0.007,-0.121C0.007,-0.138 0.011,-0.151 0.021,-0.162C0.03,-0.172 0.043,-0.177 0.06,-0.177C0.077,-0.177 0.091,-0.174 0.102,-0.166C0.113,-0.159 0.123,-0.15 0.132,-0.139C0.14,-0.128 0.149,-0.118 0.158,-0.107C0.167,-0.096 0.178,-0.087 0.19,-0.079C0.203,-0.072 0.219,-0.068 0.238,-0.068C0.252,-0.068 0.262,-0.072 0.269,-0.08C0.275,-0.088 0.279,-0.099 0.279,-0.111C0.279,-0.13 0.274,-0.141 0.264,-0.146C0.254,-0.152 0.242,-0.156 0.227,-0.159C0.199,-0.164 0.172,-0.171 0.147,-0.178C0.122,-0.186 0.099,-0.196 0.08,-0.209C0.06,-0.222 0.045,-0.239 0.034,-0.261C0.023,-0.282 0.017,-0.31 0.017,-0.344C0.017,-0.384 0.028,-0.416 0.05,-0.442C0.072,-0.467 0.099,-0.486 0.133,-0.498C0.167,-0.51 0.201,-0.516 0.236,-0.516C0.249,-0.516 0.262,-0.515 0.275,-0.514C0.288,-0.513 0.301,-0.511 0.313,-0.506C0.315,-0.506 0.319,-0.505 0.325,-0.502C0.331,-0.5 0.352,-0.493 0.352,-0.493C0.362,-0.493 0.372,-0.497 0.379,-0.504C0.387,-0.512 0.396,-0.516 0.407,-0.516C0.42,-0.516 0.431,-0.51 0.437,-0.5C0.444,-0.489 0.448,-0.477 0.451,-0.463C0.454,-0.449 0.456,-0.437 0.458,-0.427C0.459,-0.42 0.46,-0.412 0.461,-0.405C0.463,-0.397 0.463,-0.389 0.463,-0.382C0.463,-0.369 0.46,-0.357 0.454,-0.345C0.448,-0.333 0.438,-0.328 0.422,-0.328C0.407,-0.328 0.394,-0.333 0.382,-0.344C0.37,-0.354 0.358,-0.366 0.347,-0.38C0.335,-0.394 0.321,-0.406 0.306,-0.416C0.291,-0.427 0.272,-0.432 0.249,-0.432Z" style="fill:rgb(53,125,58);fill-rule:nonzero;"/>
            </g>
            <g transform="matrix(203.463,0,0,203.463,1472.37,976.505)">
                <path d="M0.511,-0.323C0.511,-0.294 0.503,-0.272 0.486,-0.257C0.469,-0.242 0.446,-0.234 0.418,-0.234L0.221,-0.234C0.229,-0.206 0.242,-0.183 0.261,-0.164C0.28,-0.145 0.308,-0.135 0.344,-0.135C0.359,-0.135 0.373,-0.138 0.387,-0.144C0.401,-0.15 0.414,-0.157 0.427,-0.166C0.44,-0.174 0.451,-0.181 0.46,-0.187C0.469,-0.193 0.477,-0.196 0.481,-0.196C0.491,-0.196 0.498,-0.192 0.502,-0.186C0.506,-0.179 0.508,-0.172 0.508,-0.163C0.508,-0.133 0.501,-0.108 0.488,-0.085C0.474,-0.063 0.455,-0.044 0.433,-0.03C0.41,-0.015 0.385,-0.004 0.359,0.003C0.332,0.01 0.305,0.014 0.279,0.014C0.228,0.014 0.183,0.004 0.144,-0.018C0.105,-0.039 0.074,-0.068 0.052,-0.107C0.031,-0.145 0.02,-0.19 0.02,-0.242C0.02,-0.297 0.03,-0.345 0.052,-0.386C0.073,-0.427 0.104,-0.459 0.144,-0.482C0.184,-0.504 0.232,-0.516 0.288,-0.516C0.326,-0.516 0.363,-0.508 0.397,-0.494C0.431,-0.479 0.458,-0.457 0.479,-0.429C0.501,-0.4 0.511,-0.365 0.511,-0.323ZM0.212,-0.31L0.212,-0.299L0.263,-0.299C0.276,-0.299 0.284,-0.302 0.289,-0.307C0.293,-0.313 0.295,-0.322 0.295,-0.333C0.295,-0.341 0.294,-0.352 0.292,-0.364C0.291,-0.377 0.287,-0.388 0.281,-0.398C0.275,-0.409 0.267,-0.414 0.256,-0.414C0.247,-0.414 0.239,-0.41 0.233,-0.402C0.227,-0.394 0.223,-0.384 0.22,-0.372C0.217,-0.36 0.215,-0.348 0.214,-0.337C0.213,-0.326 0.212,-0.316 0.212,-0.31Z" style="fill:rgb(53,125,58);fill-rule:nonzero;"/>
            </g>
            <g transform="matrix(203.463,0,0,203.463,1580.26,976.505)">
                <path d="M0.245,-0.516C0.258,-0.516 0.269,-0.511 0.276,-0.502C0.283,-0.492 0.286,-0.482 0.286,-0.469L0.286,-0.42C0.312,-0.444 0.34,-0.466 0.37,-0.486C0.401,-0.506 0.431,-0.516 0.46,-0.516C0.495,-0.516 0.523,-0.506 0.544,-0.485C0.565,-0.465 0.579,-0.441 0.587,-0.412C0.605,-0.429 0.623,-0.445 0.643,-0.461C0.663,-0.477 0.684,-0.49 0.705,-0.5C0.727,-0.51 0.748,-0.516 0.771,-0.516C0.801,-0.516 0.827,-0.508 0.847,-0.491C0.867,-0.475 0.882,-0.455 0.891,-0.429C0.901,-0.404 0.906,-0.378 0.906,-0.35L0.906,-0.147C0.906,-0.139 0.906,-0.13 0.907,-0.119C0.908,-0.108 0.912,-0.099 0.918,-0.094L0.918,-0.094C0.925,-0.086 0.931,-0.079 0.937,-0.072C0.943,-0.065 0.945,-0.056 0.945,-0.044C0.945,-0.03 0.941,-0.019 0.932,-0.011C0.923,-0.004 0.912,-0 0.898,-0L0.697,-0C0.684,-0 0.674,-0.004 0.666,-0.012C0.659,-0.021 0.655,-0.031 0.655,-0.044C0.655,-0.056 0.658,-0.066 0.663,-0.072C0.669,-0.079 0.675,-0.086 0.68,-0.094C0.686,-0.102 0.688,-0.114 0.688,-0.129L0.688,-0.297C0.688,-0.306 0.688,-0.316 0.686,-0.326C0.684,-0.337 0.68,-0.346 0.674,-0.353C0.668,-0.361 0.659,-0.364 0.647,-0.364C0.637,-0.364 0.627,-0.361 0.619,-0.355C0.611,-0.35 0.603,-0.343 0.596,-0.336L0.596,-0.133C0.596,-0.116 0.598,-0.103 0.604,-0.095C0.61,-0.086 0.615,-0.079 0.621,-0.072C0.626,-0.066 0.629,-0.056 0.629,-0.044C0.629,-0.031 0.625,-0.02 0.618,-0.012C0.611,-0.004 0.6,-0 0.586,-0L0.387,-0C0.374,-0 0.363,-0.004 0.356,-0.012C0.349,-0.021 0.345,-0.031 0.345,-0.044C0.345,-0.056 0.348,-0.066 0.354,-0.073C0.359,-0.079 0.365,-0.086 0.37,-0.094C0.376,-0.102 0.378,-0.114 0.378,-0.129L0.378,-0.297C0.378,-0.306 0.377,-0.316 0.375,-0.326C0.374,-0.337 0.37,-0.346 0.364,-0.353C0.358,-0.361 0.349,-0.364 0.337,-0.364C0.327,-0.364 0.318,-0.361 0.309,-0.356C0.301,-0.35 0.293,-0.343 0.286,-0.336L0.286,-0.133C0.286,-0.116 0.289,-0.103 0.294,-0.094C0.3,-0.086 0.306,-0.078 0.311,-0.072C0.317,-0.066 0.319,-0.056 0.319,-0.044C0.319,-0.031 0.316,-0.021 0.309,-0.012C0.301,-0.004 0.291,-0 0.277,-0L0.077,-0C0.063,-0 0.051,-0.004 0.042,-0.011C0.034,-0.019 0.029,-0.03 0.029,-0.044C0.029,-0.059 0.033,-0.069 0.039,-0.076C0.046,-0.083 0.053,-0.09 0.059,-0.098C0.066,-0.106 0.069,-0.119 0.069,-0.136L0.069,-0.317C0.069,-0.332 0.067,-0.343 0.062,-0.35C0.057,-0.358 0.052,-0.363 0.046,-0.368C0.041,-0.372 0.035,-0.377 0.031,-0.382C0.026,-0.387 0.024,-0.396 0.024,-0.406C0.024,-0.42 0.028,-0.43 0.036,-0.437C0.044,-0.443 0.053,-0.449 0.064,-0.454L0.167,-0.496C0.18,-0.501 0.192,-0.506 0.205,-0.51C0.218,-0.514 0.231,-0.516 0.245,-0.516Z" style="fill:rgb(53,125,58);fill-rule:nonzero;"/>
            </g>
            <g transform="matrix(203.463,0,0,203.463,1776.47,976.505)">
                <path d="M0.02,-0.112C0.02,-0.142 0.027,-0.167 0.041,-0.187C0.055,-0.207 0.073,-0.223 0.095,-0.236C0.118,-0.248 0.143,-0.257 0.169,-0.262C0.195,-0.267 0.221,-0.27 0.245,-0.27C0.252,-0.27 0.26,-0.269 0.267,-0.269C0.275,-0.269 0.282,-0.268 0.289,-0.267L0.289,-0.394C0.289,-0.402 0.287,-0.412 0.284,-0.422C0.281,-0.433 0.274,-0.438 0.263,-0.438C0.253,-0.438 0.247,-0.434 0.244,-0.426C0.242,-0.418 0.241,-0.41 0.241,-0.402C0.241,-0.399 0.241,-0.385 0.241,-0.382C0.241,-0.348 0.23,-0.325 0.207,-0.311C0.183,-0.298 0.157,-0.291 0.127,-0.291C0.103,-0.291 0.081,-0.297 0.063,-0.308C0.045,-0.319 0.036,-0.338 0.036,-0.366C0.036,-0.377 0.038,-0.388 0.042,-0.398C0.047,-0.409 0.052,-0.418 0.059,-0.426C0.079,-0.45 0.104,-0.469 0.134,-0.481C0.164,-0.494 0.196,-0.503 0.229,-0.508C0.263,-0.512 0.294,-0.515 0.323,-0.515C0.356,-0.515 0.387,-0.51 0.415,-0.5C0.442,-0.491 0.464,-0.475 0.481,-0.453C0.498,-0.431 0.506,-0.402 0.506,-0.365L0.506,-0.14C0.506,-0.134 0.507,-0.129 0.51,-0.125C0.512,-0.121 0.517,-0.119 0.523,-0.119C0.528,-0.119 0.532,-0.12 0.535,-0.123C0.539,-0.126 0.543,-0.128 0.548,-0.128C0.557,-0.128 0.564,-0.125 0.569,-0.118C0.574,-0.112 0.576,-0.104 0.576,-0.095C0.576,-0.072 0.569,-0.053 0.555,-0.036C0.542,-0.02 0.524,-0.007 0.504,0.001C0.483,0.01 0.463,0.014 0.442,0.014C0.417,0.014 0.393,0.009 0.368,-0.002C0.343,-0.013 0.326,-0.029 0.316,-0.052C0.3,-0.029 0.277,-0.012 0.248,-0.002C0.219,0.009 0.191,0.014 0.164,0.014C0.138,0.014 0.115,0.009 0.093,-0C0.071,-0.01 0.053,-0.024 0.04,-0.043C0.026,-0.062 0.02,-0.085 0.02,-0.112ZM0.24,-0.155C0.24,-0.142 0.243,-0.13 0.249,-0.118C0.255,-0.107 0.266,-0.101 0.281,-0.101C0.284,-0.101 0.286,-0.101 0.289,-0.102L0.289,-0.203C0.284,-0.205 0.278,-0.207 0.272,-0.207C0.26,-0.207 0.251,-0.2 0.247,-0.188C0.242,-0.176 0.24,-0.165 0.24,-0.155Z" style="fill:rgb(53,125,58);fill-rule:nonzero;"/>
            </g>
            <g transform="matrix(203.463,0,0,203.463,1891.81,976.505)">
                <path d="M0.242,-0.516C0.261,-0.516 0.273,-0.509 0.278,-0.495C0.282,-0.482 0.285,-0.468 0.285,-0.453L0.285,-0.447C0.305,-0.467 0.327,-0.484 0.352,-0.497C0.377,-0.509 0.405,-0.516 0.436,-0.516C0.47,-0.516 0.5,-0.508 0.525,-0.494C0.55,-0.48 0.571,-0.461 0.588,-0.437C0.605,-0.413 0.618,-0.387 0.626,-0.357C0.634,-0.328 0.639,-0.298 0.639,-0.268C0.639,-0.217 0.629,-0.171 0.609,-0.128C0.589,-0.085 0.56,-0.051 0.523,-0.025C0.485,0.001 0.44,0.014 0.386,0.014C0.352,0.014 0.322,0.007 0.294,-0.007L0.294,0.046C0.294,0.057 0.295,0.066 0.295,0.072C0.296,0.078 0.298,0.084 0.301,0.089C0.305,0.094 0.31,0.1 0.318,0.109C0.324,0.115 0.329,0.121 0.332,0.126C0.334,0.132 0.336,0.139 0.336,0.148C0.336,0.162 0.331,0.173 0.322,0.181C0.313,0.189 0.302,0.193 0.288,0.193L0.08,0.193C0.066,0.193 0.055,0.189 0.045,0.182C0.036,0.174 0.032,0.163 0.032,0.148C0.032,0.137 0.034,0.128 0.038,0.122C0.043,0.116 0.048,0.111 0.053,0.106C0.059,0.102 0.064,0.096 0.068,0.088C0.073,0.081 0.075,0.07 0.075,0.055L0.075,-0.317C0.075,-0.332 0.072,-0.344 0.067,-0.351C0.063,-0.358 0.057,-0.364 0.05,-0.368C0.044,-0.372 0.038,-0.377 0.033,-0.382C0.028,-0.387 0.026,-0.395 0.026,-0.406C0.026,-0.419 0.03,-0.429 0.039,-0.436C0.047,-0.444 0.057,-0.449 0.067,-0.454L0.164,-0.496C0.176,-0.502 0.189,-0.506 0.202,-0.51C0.215,-0.514 0.229,-0.516 0.242,-0.516ZM0.333,-0.389C0.319,-0.389 0.306,-0.384 0.294,-0.375L0.294,-0.117C0.301,-0.111 0.307,-0.106 0.315,-0.103C0.322,-0.099 0.331,-0.097 0.34,-0.097C0.356,-0.097 0.369,-0.102 0.378,-0.113C0.388,-0.124 0.395,-0.137 0.4,-0.153C0.405,-0.169 0.409,-0.185 0.41,-0.201C0.412,-0.217 0.413,-0.231 0.413,-0.243C0.413,-0.256 0.412,-0.27 0.41,-0.287C0.408,-0.303 0.404,-0.319 0.398,-0.335C0.393,-0.35 0.385,-0.363 0.375,-0.373C0.364,-0.384 0.35,-0.389 0.333,-0.389Z" style="fill:rgb(53,125,58);fill-rule:nonzero;"/>
            </g>
            <g transform="matrix(203.463,0,0,203.463,2027.22,976.505)">
                <path d="M0.314,-0L0.083,-0C0.069,-0 0.057,-0.004 0.048,-0.011C0.038,-0.018 0.033,-0.029 0.033,-0.044C0.033,-0.056 0.036,-0.064 0.041,-0.071C0.046,-0.078 0.053,-0.084 0.061,-0.09C0.07,-0.096 0.077,-0.101 0.081,-0.105C0.084,-0.109 0.087,-0.114 0.088,-0.119C0.089,-0.125 0.089,-0.133 0.089,-0.144L0.089,-0.537C0.089,-0.549 0.088,-0.557 0.087,-0.563C0.085,-0.568 0.081,-0.572 0.076,-0.574C0.071,-0.577 0.064,-0.581 0.054,-0.586C0.046,-0.59 0.039,-0.595 0.034,-0.602C0.028,-0.608 0.026,-0.616 0.026,-0.625C0.026,-0.638 0.03,-0.648 0.039,-0.656C0.048,-0.663 0.058,-0.668 0.068,-0.672L0.183,-0.715C0.196,-0.72 0.21,-0.724 0.224,-0.728C0.237,-0.732 0.251,-0.734 0.265,-0.734C0.279,-0.734 0.29,-0.73 0.297,-0.721C0.305,-0.712 0.309,-0.701 0.309,-0.688L0.309,-0.291L0.419,-0.379C0.422,-0.381 0.425,-0.383 0.428,-0.386C0.431,-0.388 0.433,-0.391 0.433,-0.395C0.433,-0.4 0.429,-0.405 0.421,-0.409C0.413,-0.413 0.405,-0.418 0.397,-0.425C0.39,-0.432 0.386,-0.442 0.386,-0.456C0.386,-0.471 0.391,-0.483 0.4,-0.49C0.41,-0.497 0.422,-0.5 0.436,-0.5L0.637,-0.5C0.651,-0.5 0.663,-0.497 0.673,-0.49C0.682,-0.483 0.687,-0.471 0.687,-0.456C0.687,-0.438 0.681,-0.425 0.669,-0.418C0.657,-0.411 0.644,-0.405 0.628,-0.401C0.61,-0.397 0.594,-0.392 0.579,-0.386C0.564,-0.381 0.55,-0.372 0.535,-0.359L0.506,-0.336L0.667,-0.131C0.675,-0.123 0.684,-0.114 0.696,-0.105C0.708,-0.096 0.719,-0.086 0.729,-0.076C0.738,-0.066 0.743,-0.055 0.743,-0.042C0.743,-0.027 0.738,-0.017 0.729,-0.01C0.719,-0.003 0.707,-0 0.694,-0L0.46,-0C0.447,-0 0.436,-0.004 0.428,-0.012C0.42,-0.02 0.416,-0.031 0.416,-0.044C0.416,-0.057 0.419,-0.067 0.427,-0.073C0.434,-0.079 0.441,-0.084 0.448,-0.088C0.455,-0.092 0.459,-0.097 0.459,-0.103C0.459,-0.109 0.457,-0.113 0.454,-0.118C0.45,-0.122 0.447,-0.126 0.444,-0.129L0.366,-0.223L0.309,-0.177L0.309,-0.147C0.309,-0.137 0.31,-0.126 0.311,-0.116C0.312,-0.106 0.317,-0.097 0.326,-0.09C0.335,-0.083 0.343,-0.077 0.349,-0.072C0.355,-0.068 0.358,-0.058 0.358,-0.044C0.358,-0.015 0.344,-0 0.314,-0Z" style="fill:rgb(53,125,58);fill-rule:nonzero;"/>
            </g>
            <g transform="matrix(203.463,0,0,203.463,2176.54,976.505)">
                <path d="M0.251,-0.516C0.264,-0.516 0.275,-0.511 0.282,-0.502C0.289,-0.493 0.293,-0.482 0.293,-0.469L0.293,-0.147C0.293,-0.138 0.293,-0.129 0.294,-0.119C0.295,-0.11 0.299,-0.102 0.305,-0.095C0.314,-0.086 0.321,-0.079 0.326,-0.074C0.332,-0.069 0.335,-0.059 0.335,-0.044C0.335,-0.03 0.33,-0.019 0.322,-0.011C0.313,-0.004 0.301,-0 0.287,-0L0.08,-0C0.066,-0 0.054,-0.004 0.045,-0.011C0.036,-0.019 0.032,-0.03 0.032,-0.044C0.032,-0.058 0.035,-0.068 0.04,-0.074C0.046,-0.08 0.053,-0.087 0.062,-0.095C0.068,-0.102 0.072,-0.11 0.073,-0.12C0.073,-0.129 0.074,-0.139 0.074,-0.147L0.074,-0.317C0.074,-0.324 0.073,-0.331 0.072,-0.338C0.071,-0.345 0.069,-0.351 0.064,-0.355C0.063,-0.357 0.061,-0.358 0.059,-0.359C0.058,-0.36 0.056,-0.361 0.055,-0.363C0.048,-0.37 0.041,-0.376 0.035,-0.381C0.029,-0.386 0.026,-0.394 0.026,-0.406C0.026,-0.419 0.03,-0.429 0.038,-0.437C0.046,-0.444 0.056,-0.449 0.067,-0.454L0.172,-0.496C0.185,-0.501 0.198,-0.505 0.211,-0.51C0.224,-0.514 0.238,-0.516 0.251,-0.516ZM0.178,-0.518C0.157,-0.518 0.136,-0.521 0.115,-0.527C0.094,-0.533 0.076,-0.543 0.062,-0.558C0.048,-0.572 0.041,-0.592 0.041,-0.617C0.041,-0.641 0.048,-0.661 0.062,-0.675C0.076,-0.689 0.094,-0.699 0.115,-0.705C0.136,-0.711 0.157,-0.714 0.178,-0.714C0.198,-0.714 0.219,-0.711 0.24,-0.705C0.262,-0.699 0.28,-0.689 0.294,-0.675C0.309,-0.661 0.316,-0.641 0.316,-0.617C0.316,-0.592 0.309,-0.572 0.294,-0.557C0.28,-0.543 0.262,-0.533 0.241,-0.527C0.22,-0.521 0.199,-0.518 0.178,-0.518Z" style="fill:rgb(53,125,58);fill-rule:nonzero;"/>
            </g>
            <g transform="matrix(203.463,0,0,203.463,2249.07,976.505)">
                <path d="M0.25,0.014C0.194,0.014 0.15,0.001 0.118,-0.025C0.086,-0.051 0.07,-0.093 0.07,-0.151L0.07,-0.364C0.07,-0.378 0.067,-0.388 0.061,-0.395C0.055,-0.402 0.048,-0.407 0.04,-0.412C0.031,-0.416 0.024,-0.422 0.018,-0.428C0.012,-0.434 0.009,-0.444 0.009,-0.457C0.009,-0.47 0.014,-0.481 0.023,-0.489C0.032,-0.496 0.043,-0.5 0.056,-0.5L0.078,-0.5C0.088,-0.5 0.097,-0.505 0.106,-0.514C0.115,-0.524 0.125,-0.536 0.135,-0.55C0.144,-0.565 0.154,-0.579 0.165,-0.593C0.175,-0.607 0.187,-0.619 0.199,-0.629C0.211,-0.638 0.224,-0.643 0.238,-0.643C0.255,-0.643 0.267,-0.639 0.276,-0.629C0.285,-0.62 0.29,-0.608 0.29,-0.591L0.29,-0.5L0.401,-0.5C0.413,-0.5 0.424,-0.497 0.433,-0.491C0.441,-0.485 0.446,-0.476 0.446,-0.462C0.446,-0.444 0.44,-0.43 0.428,-0.42C0.417,-0.411 0.403,-0.405 0.387,-0.402C0.37,-0.399 0.355,-0.397 0.341,-0.397L0.29,-0.397L0.29,-0.204C0.29,-0.188 0.293,-0.173 0.299,-0.158C0.306,-0.144 0.318,-0.137 0.337,-0.137C0.35,-0.137 0.361,-0.141 0.37,-0.148C0.379,-0.156 0.387,-0.163 0.395,-0.17C0.403,-0.177 0.412,-0.181 0.421,-0.181C0.429,-0.181 0.435,-0.177 0.439,-0.168C0.442,-0.16 0.444,-0.153 0.444,-0.146C0.444,-0.114 0.434,-0.085 0.414,-0.061C0.394,-0.037 0.369,-0.018 0.34,-0.005C0.31,0.008 0.28,0.014 0.25,0.014Z" style="fill:rgb(53,125,58);fill-rule:nonzero;"/>
            </g>
            <g id="compass" transform="matrix(7.25616,0,0,7.25616,880.707,793.318)">
                <g transform="matrix(0.125,0,0,0.125,0,0)">
                    <path d="M128,32C75.336,32 32,75.336 32,128C32,180.664 75.336,224 128,224C180.664,224 224,180.664 224,128C224,75.336 180.664,32 128,32ZM144,144L80,176L112,112L176,80L144,144Z" style="fill:rgb(53,125,58);fill-opacity:0.2;fill-rule:nonzero;"/>
                </g>
                <g transform="matrix(0.125,0,0,0.125,0,0)">
                    <path d="M128,24C70.947,24 24,70.947 24,128C24,185.053 70.947,232 128,232C185.053,232 232,185.053 232,128C231.94,70.97 185.03,24.06 128,24ZM128,216C79.725,216 40,176.275 40,128C40,79.725 79.725,40 128,40C176.275,40 216,79.725 216,128C215.945,176.255 176.255,215.945 128,216ZM172.42,72.84L108.42,104.84C106.873,105.617 105.617,106.873 104.84,108.42L72.84,172.42C72.284,173.531 71.994,174.757 71.994,176C71.994,180.389 75.606,184 79.994,184C79.996,184 79.998,184 80,184C81.242,183.998 82.467,183.711 83.58,183.16L147.58,151.16C149.127,150.383 150.383,149.127 151.16,147.58L183.16,83.58C183.72,82.466 184.011,81.236 184.011,79.989C184.011,75.6 180.4,71.989 176.011,71.989C174.764,71.989 173.534,72.28 172.42,72.84ZM138,138L97.89,158.11L118,118L158.15,97.93L138,138Z" style="fill:rgb(53,125,58);fill-rule:nonzero;"/>
                </g>
            </g>
        </g>
    </g>
</svg>
